<svg xmlns="http://www.w3.org/2000/svg" xml:space="preserve" viewBox="0 237.4 283.5 159.4"><path fill="none" d="M0 237.4h283.5v159.4H0z"/><g transform="translate(-5.683)"><path fill="#fff" d="M60.462 329.619h-.382c-1.018 0-1.527-.764-1.527-1.528v-4.074c0-1.019.763-1.528 1.527-1.528h.382c1.019 0 1.528.764 1.528 1.528v4.074c.127.764-.51 1.528-1.528 1.528zm.764 3.82h-1.91c-.381 0-.763-.51-.763-1.147v-.509c0-.51.382-1.146.763-1.146h1.91c.382 0 .764.51.764 1.146v.51c.127.509-.382 1.145-.764 1.145z" style="stroke-width:.785463"/><rect width="172.53" height="31.163" x="63.783" y="342.188" ry="3.99" style="font-variation-settings:normal;opacity:.1;vector-effect:none;fill:#000;fill-opacity:1;stroke:none;stroke-width:1;stroke-linecap:butt;stroke-linejoin:miter;stroke-miterlimit:4;stroke-dasharray:none;stroke-dashoffset:0;stroke-opacity:1;-inkscape-stroke:none;paint-order:stroke fill markers;stop-color:#000"/><rect width="172.53" height="31.163" x="61.981" y="339.636" ry="3.99" style="font-variation-settings:normal;vector-effect:none;fill:#3396da;fill-opacity:1;stroke:none;stroke-width:.999992;stroke-linecap:butt;stroke-linejoin:miter;stroke-miterlimit:4;stroke-dasharray:none;stroke-dashoffset:0;stroke-opacity:1;-inkscape-stroke:none;paint-order:stroke fill markers;stop-color:#000"/><rect width="85.05" height="8.207" x="67.437" y="350.326" ry="1.052" style="font-variation-settings:normal;vector-effect:none;fill:#1d5479;fill-opacity:1;stroke:none;stroke-width:.999997;stroke-linecap:butt;stroke-linejoin:miter;stroke-miterlimit:4;stroke-dasharray:none;stroke-dashoffset:0;stroke-opacity:1;-inkscape-stroke:none;paint-order:stroke fill markers;stop-color:#000"/><rect width="22.877" height="22.877" x="179.537" y="343.779" ry="2.284" style="font-variation-settings:normal;vector-effect:none;fill:#3db991;fill-opacity:1;stroke:none;stroke-width:1;stroke-linecap:butt;stroke-linejoin:miter;stroke-miterlimit:4;stroke-dasharray:none;stroke-dashoffset:0;stroke-opacity:1;-inkscape-stroke:none;paint-order:stroke fill markers;stop-color:#000"/><path fill="#fff" d="m188.35 361.078-5.887-5.72c-.506-.503-.506-.503 0-1.177.504-.672.84-.84 1.346-1.345.504-.505 1.345-.505 2.018 0 .84.84 1.681 1.345 2.859 2.187.505.504 1.346.504 2.02 0l5.382-5.383c.504-.505 1.346-.505 2.018 0 .673.504.84.504 1.178 1.178.504.504.84.84.336 1.345l-9.083 8.41c-.841.673-1.683.673-2.187.505z" style="stroke-width:.75686"/><rect width="22.877" height="22.877" x="206.539" y="343.779" ry="2.284" style="font-variation-settings:normal;vector-effect:none;fill:#da4d6b;fill-opacity:1;stroke:none;stroke-width:1;stroke-linecap:butt;stroke-linejoin:miter;stroke-miterlimit:4;stroke-dasharray:none;stroke-dashoffset:0;stroke-opacity:1;-inkscape-stroke:none;paint-order:stroke fill markers;stop-color:#000"/><path fill="#fff" d="m220.416 355.135 2.86-3.028c.504-.504.336-.84-.336-1.01a5.334 5.334 0 0 0-1.01-.84c-.504-.505-1.01-.505-1.515 0l-2.522 2.523-3.028-2.86c-.505-.504-.84-.336-1.01.337a5.334 5.334 0 0 0-.84 1.009c-.505.505-.505 1.01 0 1.515l2.523 2.522-2.86 3.029c-.504.504-.336.84.336 1.008.338.337.506.505 1.01.842.505.504 1.01.504 1.515 0l2.522-2.524 3.028 2.86c.505.505.841.336 1.01-.336.335-.337.505-.505.84-1.01.505-.504.505-1.01 0-1.514z" style="stroke-width:.75686"/><rect width="172.53" height="31.163" x="63.783" y="263.4" ry="3.99" style="font-variation-settings:normal;opacity:.1;vector-effect:none;fill:#000;fill-opacity:1;stroke:none;stroke-width:1;stroke-linecap:butt;stroke-linejoin:miter;stroke-miterlimit:4;stroke-dasharray:none;stroke-dashoffset:0;stroke-opacity:1;-inkscape-stroke:none;paint-order:stroke fill markers;stop-color:#000"/><rect width="172.53" height="31.163" x="61.981" y="260.849" ry="3.99" style="font-variation-settings:normal;vector-effect:none;fill:#3396da;fill-opacity:1;stroke:none;stroke-width:.999992;stroke-linecap:butt;stroke-linejoin:miter;stroke-miterlimit:4;stroke-dasharray:none;stroke-dashoffset:0;stroke-opacity:1;-inkscape-stroke:none;paint-order:stroke fill markers;stop-color:#000"/><rect width="85.05" height="9.783" x="67.437" y="271.538" ry="1.253" style="font-variation-settings:normal;vector-effect:none;fill:#1d5479;fill-opacity:1;stroke:none;stroke-width:.999997;stroke-linecap:butt;stroke-linejoin:miter;stroke-miterlimit:4;stroke-dasharray:none;stroke-dashoffset:0;stroke-opacity:1;-inkscape-stroke:none;paint-order:stroke fill markers;stop-color:#000"/><rect width="26.127" height="26.127" x="177.913" y="263.366" ry="2.609" style="font-variation-settings:normal;vector-effect:none;fill:#1d5479;fill-opacity:1;stroke:none;stroke-width:1;stroke-linecap:butt;stroke-linejoin:miter;stroke-miterlimit:4;stroke-dasharray:none;stroke-dashoffset:0;stroke-opacity:1;-inkscape-stroke:none;paint-order:stroke fill markers;stop-color:#000"/><rect width="22.877" height="22.877" x="179.537" y="264.992" ry="2.284" style="font-variation-settings:normal;vector-effect:none;fill:gray;fill-opacity:1;stroke:none;stroke-width:1;stroke-linecap:butt;stroke-linejoin:miter;stroke-miterlimit:4;stroke-dasharray:none;stroke-dashoffset:0;stroke-opacity:1;-inkscape-stroke:none;paint-order:stroke fill markers;stop-color:#000"/><path fill="#fff" d="m188.349 282.293-5.889-5.72c-.504-.505-.504-.505 0-1.177.506-.674.84-.84 1.346-1.346.506-.505 1.346-.505 2.02 0 .84.84 1.681 1.346 2.859 2.186.504.506 1.345.506 2.018 0l5.382-5.383c.506-.504 1.346-.504 2.02 0 .672.506.84.506 1.177 1.178.504.505.84.84.336 1.346l-9.083 8.41c-.84.674-1.682.674-2.186.506z" style="stroke-width:.75686"/><rect width="22.877" height="22.877" x="206.539" y="264.992" ry="2.284" style="font-variation-settings:normal;vector-effect:none;fill:gray;fill-opacity:1;stroke:none;stroke-width:1;stroke-linecap:butt;stroke-linejoin:miter;stroke-miterlimit:4;stroke-dasharray:none;stroke-dashoffset:0;stroke-opacity:1;-inkscape-stroke:none;paint-order:stroke fill markers;stop-color:#000"/><path fill="#fff" d="m220.416 276.346 2.86-3.028c.504-.504.336-.84-.336-1.01-.336-.336-.506-.504-1.01-.84-.504-.505-1.01-.505-1.515 0l-2.522 2.522-3.028-2.86c-.505-.503-.84-.335-1.01.338-.335.336-.503.504-.84 1.009-.505.505-.505 1.01 0 1.515l2.523 2.522-2.86 3.029c-.504.504-.336.84.336 1.008.338.337.506.505 1.01.841.505.505 1.01.505 1.515 0l2.522-2.523 3.028 2.86c.505.505.841.336 1.01-.337a5.334 5.334 0 0 0 .84-1.01c.505-.503.505-1.009 0-1.513z" style="stroke-width:.75686"/><rect width="172.53" height="31.163" x="63.784" y="302.796" ry="3.99" style="font-variation-settings:normal;opacity:.1;vector-effect:none;fill:#000;fill-opacity:1;stroke:none;stroke-width:1;stroke-linecap:butt;stroke-linejoin:miter;stroke-miterlimit:4;stroke-dasharray:none;stroke-dashoffset:0;stroke-opacity:1;-inkscape-stroke:none;paint-order:stroke fill markers;stop-color:#000"/><rect width="172.53" height="31.163" x="61.982" y="300.242" ry="3.99" style="font-variation-settings:normal;vector-effect:none;fill:#3396da;fill-opacity:1;stroke:none;stroke-width:.999992;stroke-linecap:butt;stroke-linejoin:miter;stroke-miterlimit:4;stroke-dasharray:none;stroke-dashoffset:0;stroke-opacity:1;-inkscape-stroke:none;paint-order:stroke fill markers;stop-color:#000"/><rect width="85.05" height="8.207" x="67.437" y="310.932" ry="1.052" style="font-variation-settings:normal;vector-effect:none;fill:#1d5479;fill-opacity:1;stroke:none;stroke-width:.999997;stroke-linecap:butt;stroke-linejoin:miter;stroke-miterlimit:4;stroke-dasharray:none;stroke-dashoffset:0;stroke-opacity:1;-inkscape-stroke:none;paint-order:stroke fill markers;stop-color:#000"/><rect width="26.127" height="26.127" x="204.913" y="302.761" ry="2.609" style="font-variation-settings:normal;vector-effect:none;fill:#1d5479;fill-opacity:1;stroke:none;stroke-width:1;stroke-linecap:butt;stroke-linejoin:miter;stroke-miterlimit:4;stroke-dasharray:none;stroke-dashoffset:0;stroke-opacity:1;-inkscape-stroke:none;paint-order:stroke fill markers;stop-color:#000"/><rect width="22.877" height="22.877" x="179.537" y="304.385" ry="2.284" style="font-variation-settings:normal;vector-effect:none;fill:gray;fill-opacity:1;stroke:none;stroke-width:1;stroke-linecap:butt;stroke-linejoin:miter;stroke-miterlimit:4;stroke-dasharray:none;stroke-dashoffset:0;stroke-opacity:1;-inkscape-stroke:none;paint-order:stroke fill markers;stop-color:#000"/><path fill="#fff" d="m188.35 321.687-5.887-5.72c-.506-.504-.506-.504 0-1.178.504-.672.84-.84 1.346-1.345.504-.505 1.345-.505 2.018 0 .84.84 1.681 1.345 2.859 2.187.505.504 1.346.504 2.02 0l5.382-5.383c.504-.505 1.346-.505 2.018 0 .673.504.84.504 1.178 1.178.504.504.84.84.336 1.345l-9.083 8.41c-.841.673-1.683.673-2.187.505z" style="stroke-width:.75686"/><rect width="22.877" height="22.877" x="206.539" y="304.385" ry="2.284" style="font-variation-settings:normal;vector-effect:none;fill:gray;fill-opacity:1;stroke:none;stroke-width:1;stroke-linecap:butt;stroke-linejoin:miter;stroke-miterlimit:4;stroke-dasharray:none;stroke-dashoffset:0;stroke-opacity:1;-inkscape-stroke:none;paint-order:stroke fill markers;stop-color:#000"/><path fill="#fff" d="m220.416 315.74 2.86-3.029c.504-.504.336-.84-.336-1.008a5.334 5.334 0 0 0-1.01-.841c-.504-.505-1.01-.505-1.515 0l-2.522 2.523-3.028-2.86c-.505-.505-.84-.337-1.01.337-.335.336-.503.504-.84 1.01-.505.503-.505 1.008 0 1.513l2.523 2.523-2.86 3.028c-.504.504-.336.84.336 1.01.338.336.506.504 1.01.84.505.505 1.01.505 1.515 0l2.522-2.524 3.028 2.861c.505.504.841.336 1.01-.337a5.334 5.334 0 0 0 .84-1.009c.505-.505.505-1.01 0-1.515z" style="stroke-width:.75686"/></g></svg>