<svg xmlns="http://www.w3.org/2000/svg" xml:space="preserve" viewBox="0 237.4 283.5 159.4"><path fill="none" d="M0 237.4h283.5v159.4H0z"/><g transform="translate(12.012 -.967)"><path fill="#fff" d="M65.889 327.9h-.3c-.8 0-1.2-.6-1.2-1.2v-3.2c0-.8.6-1.2 1.2-1.2h.3c.8 0 1.2.6 1.2 1.2v3.2c.1.6-.4 1.2-1.2 1.2zm.6 3h-1.5c-.3 0-.6-.4-.6-.9v-.4c0-.4.3-.9.6-.9h1.5c.3 0 .6.4.6.9v.4c.1.4-.3.9-.6.9z"/><rect width="147.016" height="24.477" x="56.997" y="337.773" ry="3.134" style="font-variation-settings:normal;opacity:.1;vector-effect:none;fill:#000;fill-opacity:1;stroke:none;stroke-width:1;stroke-linecap:butt;stroke-linejoin:miter;stroke-miterlimit:4;stroke-dasharray:none;stroke-dashoffset:0;stroke-opacity:1;-inkscape-stroke:none;paint-order:stroke fill markers;stop-color:#000"/><rect width="147.016" height="24.477" x="55.461" y="335.768" ry="3.134" style="font-variation-settings:normal;vector-effect:none;fill:#3396da;fill-opacity:1;stroke:none;stroke-width:.999995;stroke-linecap:butt;stroke-linejoin:miter;stroke-miterlimit:4;stroke-dasharray:none;stroke-dashoffset:0;stroke-opacity:1;-inkscape-stroke:none;paint-order:stroke fill markers;stop-color:#000"/><rect width="78.514" height="6.446" x="59.657" y="344.165" ry=".826" style="font-variation-settings:normal;vector-effect:none;fill:#1d5479;fill-opacity:1;stroke:none;stroke-width:1;stroke-linecap:butt;stroke-linejoin:miter;stroke-miterlimit:4;stroke-dasharray:none;stroke-dashoffset:0;stroke-opacity:1;-inkscape-stroke:none;paint-order:stroke fill markers;stop-color:#000"/><rect width="17.969" height="17.969" x="159.418" y="339.022" ry="1.794" style="font-variation-settings:normal;vector-effect:none;fill:#3db991;fill-opacity:1;stroke:none;stroke-width:1;stroke-linecap:butt;stroke-linejoin:miter;stroke-miterlimit:4;stroke-dasharray:none;stroke-dashoffset:0;stroke-opacity:1;-inkscape-stroke:none;paint-order:stroke fill markers;stop-color:#000"/><path fill="#fff" d="m166.34 352.61-4.624-4.492c-.397-.396-.397-.396 0-.925.396-.528.66-.66 1.057-1.057.396-.396 1.057-.396 1.585 0 .66.66 1.321 1.057 2.246 1.718.397.396 1.057.396 1.586 0l4.228-4.228c.396-.397 1.057-.397 1.585 0 .529.396.66.396.925.925.396.396.66.66.264 1.057l-7.134 6.606c-.661.528-1.322.528-1.718.396z" style="stroke-width:.75686"/><rect width="17.969" height="17.969" x="180.627" y="339.022" ry="1.794" style="font-variation-settings:normal;vector-effect:none;fill:#da4d6b;fill-opacity:1;stroke:none;stroke-width:1;stroke-linecap:butt;stroke-linejoin:miter;stroke-miterlimit:4;stroke-dasharray:none;stroke-dashoffset:0;stroke-opacity:1;-inkscape-stroke:none;paint-order:stroke fill markers;stop-color:#000"/><path fill="#fff" d="m191.527 347.942 2.246-2.378c.396-.396.264-.66-.264-.793a4.19 4.19 0 0 0-.793-.66c-.396-.397-.793-.397-1.19 0l-1.981 1.981-2.378-2.246c-.397-.396-.66-.264-.793.265a4.19 4.19 0 0 0-.66.792c-.397.397-.397.793 0 1.19l1.981 1.981-2.246 2.379c-.396.396-.264.66.264.792.265.265.397.397.793.661.397.396.793.396 1.19 0l1.981-1.982 2.378 2.246c.397.397.661.264.793-.264.264-.264.397-.396.66-.793.397-.396.397-.793 0-1.189z" style="stroke-width:.75686"/><rect width="147.016" height="24.477" x="56.997" y="275.888" ry="3.134" style="font-variation-settings:normal;opacity:.1;vector-effect:none;fill:#000;fill-opacity:1;stroke:none;stroke-width:1;stroke-linecap:butt;stroke-linejoin:miter;stroke-miterlimit:4;stroke-dasharray:none;stroke-dashoffset:0;stroke-opacity:1;-inkscape-stroke:none;paint-order:stroke fill markers;stop-color:#000"/><rect width="147.016" height="24.477" x="55.461" y="273.884" ry="3.134" style="font-variation-settings:normal;vector-effect:none;fill:#3396da;fill-opacity:1;stroke:none;stroke-width:.999995;stroke-linecap:butt;stroke-linejoin:miter;stroke-miterlimit:4;stroke-dasharray:none;stroke-dashoffset:0;stroke-opacity:1;-inkscape-stroke:none;paint-order:stroke fill markers;stop-color:#000"/><rect width="78.514" height="7.684" x="59.657" y="282.28" ry=".984" style="font-variation-settings:normal;vector-effect:none;fill:#1d5479;fill-opacity:1;stroke:none;stroke-width:.999997;stroke-linecap:butt;stroke-linejoin:miter;stroke-miterlimit:4;stroke-dasharray:none;stroke-dashoffset:0;stroke-opacity:1;-inkscape-stroke:none;paint-order:stroke fill markers;stop-color:#000"/><rect width="20.522" height="20.522" x="158.142" y="275.861" ry="2.049" style="font-variation-settings:normal;vector-effect:none;fill:#1d5479;fill-opacity:1;stroke:none;stroke-width:1;stroke-linecap:butt;stroke-linejoin:miter;stroke-miterlimit:4;stroke-dasharray:none;stroke-dashoffset:0;stroke-opacity:1;-inkscape-stroke:none;paint-order:stroke fill markers;stop-color:#000"/><rect width="17.969" height="17.969" x="159.418" y="277.138" ry="1.794" style="font-variation-settings:normal;vector-effect:none;fill:gray;fill-opacity:1;stroke:none;stroke-width:1;stroke-linecap:butt;stroke-linejoin:miter;stroke-miterlimit:4;stroke-dasharray:none;stroke-dashoffset:0;stroke-opacity:1;-inkscape-stroke:none;paint-order:stroke fill markers;stop-color:#000"/><path fill="#fff" d="m166.339 290.727-4.625-4.492c-.396-.397-.396-.397 0-.925.397-.529.66-.66 1.057-1.057.397-.397 1.057-.397 1.586 0 .66.66 1.321 1.057 2.246 1.717.396.397 1.057.397 1.585 0l4.228-4.228c.397-.396 1.057-.396 1.586 0 .528.397.66.397.925.925.396.397.66.66.264 1.057l-7.135 6.606c-.66.529-1.321.529-1.717.397z" style="stroke-width:.75686"/><rect width="17.969" height="17.969" x="180.627" y="277.138" ry="1.794" style="font-variation-settings:normal;vector-effect:none;fill:gray;fill-opacity:1;stroke:none;stroke-width:1;stroke-linecap:butt;stroke-linejoin:miter;stroke-miterlimit:4;stroke-dasharray:none;stroke-dashoffset:0;stroke-opacity:1;-inkscape-stroke:none;paint-order:stroke fill markers;stop-color:#000"/><path fill="#fff" d="m191.527 286.056 2.246-2.378c.396-.396.264-.66-.264-.793-.264-.264-.397-.396-.793-.66-.396-.397-.793-.397-1.19 0l-1.981 1.981-2.378-2.246c-.397-.396-.66-.264-.793.265-.264.264-.396.396-.66.792-.397.397-.397.793 0 1.19l1.981 1.981-2.246 2.379c-.396.396-.264.66.264.792.265.265.397.397.793.661.397.396.793.396 1.19 0l1.981-1.982 2.378 2.246c.397.397.661.264.793-.264a4.19 4.19 0 0 0 .66-.793c.397-.396.397-.793 0-1.189z" style="stroke-width:.75686"/><rect width="147.016" height="24.477" x="56.998" y="306.832" ry="3.134" style="font-variation-settings:normal;opacity:.1;vector-effect:none;fill:#000;fill-opacity:1;stroke:none;stroke-width:1;stroke-linecap:butt;stroke-linejoin:miter;stroke-miterlimit:4;stroke-dasharray:none;stroke-dashoffset:0;stroke-opacity:1;-inkscape-stroke:none;paint-order:stroke fill markers;stop-color:#000"/><rect width="147.016" height="24.477" x="55.462" y="304.826" ry="3.134" style="font-variation-settings:normal;vector-effect:none;fill:#3396da;fill-opacity:1;stroke:none;stroke-width:.999995;stroke-linecap:butt;stroke-linejoin:miter;stroke-miterlimit:4;stroke-dasharray:none;stroke-dashoffset:0;stroke-opacity:1;-inkscape-stroke:none;paint-order:stroke fill markers;stop-color:#000"/><rect width="78.514" height="6.446" x="59.657" y="313.222" ry=".826" style="font-variation-settings:normal;vector-effect:none;fill:#1d5479;fill-opacity:1;stroke:none;stroke-width:1;stroke-linecap:butt;stroke-linejoin:miter;stroke-miterlimit:4;stroke-dasharray:none;stroke-dashoffset:0;stroke-opacity:1;-inkscape-stroke:none;paint-order:stroke fill markers;stop-color:#000"/><rect width="20.522" height="20.522" x="179.35" y="306.804" ry="2.049" style="font-variation-settings:normal;vector-effect:none;fill:#1d5479;fill-opacity:1;stroke:none;stroke-width:1;stroke-linecap:butt;stroke-linejoin:miter;stroke-miterlimit:4;stroke-dasharray:none;stroke-dashoffset:0;stroke-opacity:1;-inkscape-stroke:none;paint-order:stroke fill markers;stop-color:#000"/><rect width="17.969" height="17.969" x="159.418" y="308.08" ry="1.794" style="font-variation-settings:normal;vector-effect:none;fill:gray;fill-opacity:1;stroke:none;stroke-width:1;stroke-linecap:butt;stroke-linejoin:miter;stroke-miterlimit:4;stroke-dasharray:none;stroke-dashoffset:0;stroke-opacity:1;-inkscape-stroke:none;paint-order:stroke fill markers;stop-color:#000"/><path fill="#fff" d="m166.34 321.67-4.624-4.493c-.397-.396-.397-.396 0-.925.396-.528.66-.66 1.057-1.057.396-.396 1.057-.396 1.585 0 .66.66 1.321 1.057 2.246 1.718.397.396 1.057.396 1.586 0l4.228-4.228c.396-.397 1.057-.397 1.585 0 .529.396.66.396.925.925.396.396.66.66.264 1.057l-7.134 6.606c-.661.528-1.322.528-1.718.396z" style="stroke-width:.75686"/><rect width="17.969" height="17.969" x="180.627" y="308.08" ry="1.794" style="font-variation-settings:normal;vector-effect:none;fill:gray;fill-opacity:1;stroke:none;stroke-width:1;stroke-linecap:butt;stroke-linejoin:miter;stroke-miterlimit:4;stroke-dasharray:none;stroke-dashoffset:0;stroke-opacity:1;-inkscape-stroke:none;paint-order:stroke fill markers;stop-color:#000"/><path fill="#fff" d="m191.527 316.999 2.246-2.379c.396-.396.264-.66-.264-.792a4.19 4.19 0 0 0-.793-.661c-.396-.396-.793-.396-1.19 0l-1.981 1.982-2.378-2.246c-.397-.397-.66-.265-.793.264-.264.264-.396.396-.66.793-.397.396-.397.792 0 1.189l1.981 1.982-2.246 2.378c-.396.396-.264.66.264.793.265.264.397.396.793.66.397.397.793.397 1.19 0l1.981-1.982 2.378 2.247c.397.396.661.264.793-.265a4.19 4.19 0 0 0 .66-.792c.397-.397.397-.793 0-1.19z" style="stroke-width:.75686"/></g></svg>