<svg xmlns="http://www.w3.org/2000/svg" xml:space="preserve" viewBox="0 237.4 283.5 159.4"><path fill="none" d="M0 237.4h283.5v159.4H0z"/><path fill="#fff" d="M65.889 327.9h-.3c-.8 0-1.2-.6-1.2-1.2v-3.2c0-.8.6-1.2 1.2-1.2h.3c.8 0 1.2.6 1.2 1.2v3.2c.1.6-.4 1.2-1.2 1.2zM66.489 330.9h-1.5c-.3 0-.6-.4-.6-.9v-.4c0-.4.3-.9.6-.9h1.5c.3 0 .6.4.6.9v.4c.1.4-.3.9-.6.9z"/><g transform="translate(-3.775 85.933)"><rect width="123.241" height="18.526" x="84.547" y="257.791" ry="2.372" style="font-variation-settings:normal;opacity:.1;vector-effect:none;fill:#000;fill-opacity:1;stroke:none;stroke-width:1;stroke-linecap:butt;stroke-linejoin:miter;stroke-miterlimit:4;stroke-dasharray:none;stroke-dashoffset:0;stroke-opacity:1;-inkscape-stroke:none;paint-order:stroke fill markers;stop-color:#000;stop-opacity:1"/><rect width="123.241" height="18.526" x="83.26" y="256.274" ry="2.372" style="font-variation-settings:normal;vector-effect:none;fill:#3396da;fill-opacity:1;stroke:none;stroke-width:.999996;stroke-linecap:butt;stroke-linejoin:miter;stroke-miterlimit:4;stroke-dasharray:none;stroke-dashoffset:0;stroke-opacity:1;-inkscape-stroke:none;paint-order:stroke fill markers;stop-color:#000"/><rect width="70.837" height="5.816" x="87.118" y="262.629" ry=".745" style="font-variation-settings:normal;vector-effect:none;fill:#1d5479;fill-opacity:1;stroke:none;stroke-width:1;stroke-linecap:butt;stroke-linejoin:miter;stroke-miterlimit:4;stroke-dasharray:none;stroke-dashoffset:0;stroke-opacity:1;-inkscape-stroke:none;paint-order:stroke fill markers;stop-color:#000"/><g transform="translate(113.56 -3.107)"><rect width="13.6" height="13.6" x="60.476" y="261.844" ry="1.358" style="font-variation-settings:normal;vector-effect:none;fill:#3db991;fill-opacity:1;stroke:none;stroke-width:1;stroke-linecap:butt;stroke-linejoin:miter;stroke-miterlimit:4;stroke-dasharray:none;stroke-dashoffset:0;stroke-opacity:1;-inkscape-stroke:none;paint-order:stroke fill markers;stop-color:#000"/><path fill="#fff" d="m65.715 272.128-3.5-3.4c-.3-.3-.3-.3 0-.7.3-.4.5-.5.8-.8.3-.3.8-.3 1.2 0 .5.5 1 .8 1.7 1.3.3.3.8.3 1.2 0l3.2-3.2c.3-.3.8-.3 1.2 0 .4.3.5.3.7.7.3.3.5.5.2.8l-5.4 5c-.5.4-1 .4-1.3.3z"/></g><g transform="translate(147.627 -25.352)"><rect width="13.6" height="13.6" x="42.461" y="284.089" ry="1.358" style="font-variation-settings:normal;opacity:1;vector-effect:none;fill:#da4d6b;fill-opacity:1;stroke:none;stroke-width:1;stroke-linecap:butt;stroke-linejoin:miter;stroke-miterlimit:4;stroke-dasharray:none;stroke-dashoffset:0;stroke-opacity:1;-inkscape-stroke:none;paint-order:stroke fill markers;stop-color:#000;stop-opacity:1"/><path fill="#fff" d="m50.711 290.84 1.7-1.8c.3-.3.2-.5-.2-.6-.2-.2-.3-.3-.6-.5-.3-.3-.6-.3-.9 0l-1.5 1.5-1.8-1.7c-.3-.3-.5-.2-.6.2-.2.2-.3.3-.5.6-.3.3-.3.6 0 .9l1.5 1.5-1.7 1.8c-.3.3-.2.5.2.6.2.2.3.3.6.5.3.3.6.3.9 0l1.5-1.5 1.8 1.7c.3.3.5.2.6-.2.2-.2.3-.3.5-.6.3-.3.3-.6 0-.9z"/></g></g><g transform="translate(-3.775 39.095)"><rect width="123.241" height="18.526" x="84.547" y="257.791" ry="2.372" style="font-variation-settings:normal;opacity:.1;vector-effect:none;fill:#000;fill-opacity:1;stroke:none;stroke-width:1;stroke-linecap:butt;stroke-linejoin:miter;stroke-miterlimit:4;stroke-dasharray:none;stroke-dashoffset:0;stroke-opacity:1;-inkscape-stroke:none;paint-order:stroke fill markers;stop-color:#000;stop-opacity:1"/><rect width="123.241" height="18.526" x="83.26" y="256.274" ry="2.372" style="font-variation-settings:normal;vector-effect:none;fill:#3396da;fill-opacity:1;stroke:none;stroke-width:.999996;stroke-linecap:butt;stroke-linejoin:miter;stroke-miterlimit:4;stroke-dasharray:none;stroke-dashoffset:0;stroke-opacity:1;-inkscape-stroke:none;paint-order:stroke fill markers;stop-color:#000"/><rect width="70.837" height="5.816" x="87.118" y="262.629" ry=".745" style="font-variation-settings:normal;vector-effect:none;fill:#1d5479;fill-opacity:1;stroke:none;stroke-width:1;stroke-linecap:butt;stroke-linejoin:miter;stroke-miterlimit:4;stroke-dasharray:none;stroke-dashoffset:0;stroke-opacity:1;-inkscape-stroke:none;paint-order:stroke fill markers;stop-color:#000"/><rect width="15.532" height="15.532" x="173.07" y="257.771" ry="1.551" style="font-variation-settings:normal;opacity:1;vector-effect:none;fill:#1d5479;fill-opacity:1;stroke:none;stroke-width:1;stroke-linecap:butt;stroke-linejoin:miter;stroke-miterlimit:4;stroke-dasharray:none;stroke-dashoffset:0;stroke-opacity:1;-inkscape-stroke:none;paint-order:stroke fill markers;stop-color:#000;stop-opacity:1"/><rect width="13.6" height="13.6" x="174.036" y="258.737" ry="1.358" style="font-variation-settings:normal;vector-effect:none;fill:gray;fill-opacity:1;stroke:none;stroke-width:1;stroke-linecap:butt;stroke-linejoin:miter;stroke-miterlimit:4;stroke-dasharray:none;stroke-dashoffset:0;stroke-opacity:1;-inkscape-stroke:none;paint-order:stroke fill markers;stop-color:#000"/><path fill="#fff" d="m179.274 269.022-3.5-3.4c-.3-.3-.3-.3 0-.7.3-.4.5-.5.8-.8.3-.3.8-.3 1.2 0 .5.5 1 .8 1.7 1.3.3.3.8.3 1.2 0l3.2-3.2c.3-.3.8-.3 1.2 0 .4.3.5.3.7.7.3.3.5.5.2.8l-5.4 5c-.5.4-1 .4-1.3.3z"/><rect width="13.6" height="13.6" x="190.088" y="258.737" ry="1.358" style="font-variation-settings:normal;vector-effect:none;fill:gray;fill-opacity:1;stroke:none;stroke-width:1;stroke-linecap:butt;stroke-linejoin:miter;stroke-miterlimit:4;stroke-dasharray:none;stroke-dashoffset:0;stroke-opacity:1;-inkscape-stroke:none;paint-order:stroke fill markers;stop-color:#000"/><path fill="#fff" d="m198.338 265.487 1.7-1.8c.3-.3.2-.5-.2-.6-.2-.2-.3-.3-.6-.5-.3-.3-.6-.3-.9 0l-1.5 1.5-1.8-1.7c-.3-.3-.5-.2-.6.2-.2.2-.3.3-.5.6-.3.3-.3.6 0 .9l1.5 1.5-1.7 1.8c-.3.3-.2.5.2.6.2.2.3.3.6.5.3.3.6.3.9 0l1.5-1.5 1.8 1.7c.3.3.5.2.6-.2.2-.2.3-.3.5-.6.3-.3.3-.6 0-.9z"/></g><g transform="translate(-3.775 15.675)"><rect width="123.241" height="18.526" x="84.547" y="257.791" ry="2.372" style="font-variation-settings:normal;opacity:.1;vector-effect:none;fill:#000;fill-opacity:1;stroke:none;stroke-width:1;stroke-linecap:butt;stroke-linejoin:miter;stroke-miterlimit:4;stroke-dasharray:none;stroke-dashoffset:0;stroke-opacity:1;-inkscape-stroke:none;paint-order:stroke fill markers;stop-color:#000;stop-opacity:1"/><rect width="123.241" height="18.526" x="83.26" y="256.274" ry="2.372" style="font-variation-settings:normal;vector-effect:none;fill:#3396da;fill-opacity:1;stroke:none;stroke-width:.999996;stroke-linecap:butt;stroke-linejoin:miter;stroke-miterlimit:4;stroke-dasharray:none;stroke-dashoffset:0;stroke-opacity:1;-inkscape-stroke:none;paint-order:stroke fill markers;stop-color:#000"/><rect width="70.837" height="5.816" x="87.118" y="262.629" ry=".745" style="font-variation-settings:normal;vector-effect:none;fill:#1d5479;fill-opacity:1;stroke:none;stroke-width:1;stroke-linecap:butt;stroke-linejoin:miter;stroke-miterlimit:4;stroke-dasharray:none;stroke-dashoffset:0;stroke-opacity:1;-inkscape-stroke:none;paint-order:stroke fill markers;stop-color:#000"/><rect width="15.532" height="15.532" x="173.07" y="257.771" ry="1.551" style="font-variation-settings:normal;opacity:1;vector-effect:none;fill:#1d5479;fill-opacity:1;stroke:none;stroke-width:1;stroke-linecap:butt;stroke-linejoin:miter;stroke-miterlimit:4;stroke-dasharray:none;stroke-dashoffset:0;stroke-opacity:1;-inkscape-stroke:none;paint-order:stroke fill markers;stop-color:#000;stop-opacity:1"/><rect width="13.6" height="13.6" x="174.036" y="258.737" ry="1.358" style="font-variation-settings:normal;vector-effect:none;fill:gray;fill-opacity:1;stroke:none;stroke-width:1;stroke-linecap:butt;stroke-linejoin:miter;stroke-miterlimit:4;stroke-dasharray:none;stroke-dashoffset:0;stroke-opacity:1;-inkscape-stroke:none;paint-order:stroke fill markers;stop-color:#000"/><path fill="#fff" d="m179.274 269.022-3.5-3.4c-.3-.3-.3-.3 0-.7.3-.4.5-.5.8-.8.3-.3.8-.3 1.2 0 .5.5 1 .8 1.7 1.3.3.3.8.3 1.2 0l3.2-3.2c.3-.3.8-.3 1.2 0 .4.3.5.3.7.7.3.3.5.5.2.8l-5.4 5c-.5.4-1 .4-1.3.3z"/><rect width="13.6" height="13.6" x="190.088" y="258.737" ry="1.358" style="font-variation-settings:normal;vector-effect:none;fill:gray;fill-opacity:1;stroke:none;stroke-width:1;stroke-linecap:butt;stroke-linejoin:miter;stroke-miterlimit:4;stroke-dasharray:none;stroke-dashoffset:0;stroke-opacity:1;-inkscape-stroke:none;paint-order:stroke fill markers;stop-color:#000"/><path fill="#fff" d="m198.338 265.487 1.7-1.8c.3-.3.2-.5-.2-.6-.2-.2-.3-.3-.6-.5-.3-.3-.6-.3-.9 0l-1.5 1.5-1.8-1.7c-.3-.3-.5-.2-.6.2-.2.2-.3.3-.5.6-.3.3-.3.6 0 .9l1.5 1.5-1.7 1.8c-.3.3-.2.5.2.6.2.2.3.3.6.5.3.3.6.3.9 0l1.5-1.5 1.8 1.7c.3.3.5.2.6-.2.2-.2.3-.3.5-.6.3-.3.3-.6 0-.9z"/></g><g transform="translate(-3.773 38.808)"><rect width="123.241" height="18.526" x="84.546" y="281.498" ry="2.372" style="font-variation-settings:normal;opacity:.1;vector-effect:none;fill:#000;fill-opacity:1;stroke:none;stroke-width:1;stroke-linecap:butt;stroke-linejoin:miter;stroke-miterlimit:4;stroke-dasharray:none;stroke-dashoffset:0;stroke-opacity:1;-inkscape-stroke:none;paint-order:stroke fill markers;stop-color:#000"/><rect width="123.241" height="18.526" x="83.259" y="279.98" ry="2.372" style="font-variation-settings:normal;vector-effect:none;fill:#3396da;fill-opacity:1;stroke:none;stroke-width:.999996;stroke-linecap:butt;stroke-linejoin:miter;stroke-miterlimit:4;stroke-dasharray:none;stroke-dashoffset:0;stroke-opacity:1;-inkscape-stroke:none;paint-order:stroke fill markers;stop-color:#000"/><rect width="70.837" height="5.816" x="87.116" y="286.335" ry=".745" style="font-variation-settings:normal;vector-effect:none;fill:#1d5479;fill-opacity:1;stroke:none;stroke-width:1;stroke-linecap:butt;stroke-linejoin:miter;stroke-miterlimit:4;stroke-dasharray:none;stroke-dashoffset:0;stroke-opacity:1;-inkscape-stroke:none;paint-order:stroke fill markers;stop-color:#000"/><rect width="15.532" height="15.532" x="189.12" y="281.477" ry="1.551" style="font-variation-settings:normal;vector-effect:none;fill:#1d5479;fill-opacity:1;stroke:none;stroke-width:1;stroke-linecap:butt;stroke-linejoin:miter;stroke-miterlimit:4;stroke-dasharray:none;stroke-dashoffset:0;stroke-opacity:1;-inkscape-stroke:none;paint-order:stroke fill markers;stop-color:#000"/><rect width="13.6" height="13.6" x="174.034" y="282.443" ry="1.358" style="font-variation-settings:normal;vector-effect:none;fill:gray;fill-opacity:1;stroke:none;stroke-width:1;stroke-linecap:butt;stroke-linejoin:miter;stroke-miterlimit:4;stroke-dasharray:none;stroke-dashoffset:0;stroke-opacity:1;-inkscape-stroke:none;paint-order:stroke fill markers;stop-color:#000"/><path fill="#fff" d="m179.273 292.728-3.5-3.4c-.3-.3-.3-.3 0-.7.3-.4.5-.5.8-.8.3-.3.8-.3 1.2 0 .5.5 1 .8 1.7 1.3.3.3.8.3 1.2 0l3.2-3.2c.3-.3.8-.3 1.2 0 .4.3.5.3.7.7.3.3.5.5.2.8l-5.4 5c-.5.4-1 .4-1.3.3z"/><rect width="13.6" height="13.6" x="190.086" y="282.443" ry="1.358" style="font-variation-settings:normal;vector-effect:none;fill:gray;fill-opacity:1;stroke:none;stroke-width:1;stroke-linecap:butt;stroke-linejoin:miter;stroke-miterlimit:4;stroke-dasharray:none;stroke-dashoffset:0;stroke-opacity:1;-inkscape-stroke:none;paint-order:stroke fill markers;stop-color:#000"/><path fill="#fff" d="m198.336 289.193 1.7-1.8c.3-.3.2-.5-.2-.6-.2-.2-.3-.3-.6-.5-.3-.3-.6-.3-.9 0l-1.5 1.5-1.8-1.7c-.3-.3-.5-.2-.6.2-.2.2-.3.3-.5.6-.3.3-.3.6 0 .9l1.5 1.5-1.7 1.8c-.3.3-.2.5.2.6.2.2.3.3.6.5.3.3.6.3.9 0l1.5-1.5 1.8 1.7c.3.3.5.2.6-.2.2-.2.3-.3.5-.6.3-.3.3-.6 0-.9z"/></g></svg>
